<?xml version="1.0" ?><!DOCTYPE svg  PUBLIC '-//W3C//DTD SVG 1.1//EN'  'http://www.w3.org/Graphics/SVG/1.1/DTD/svg11.dtd'><svg enable-background="new 0 0 100 100" height="100px" id="Layer_1" version="1.1" viewBox="0 0 100 100" width="100px" xml:space="preserve" xmlns="http://www.w3.org/2000/svg" xmlns:xlink="http://www.w3.org/1999/xlink"><g><g><linearGradient gradientTransform="matrix(0.1785 0 0 1.064 643.9009 -656.8008)" gradientUnits="userSpaceOnUse" id="SVGID_1_" x1="-3135.312" x2="-3118.8215" y1="678.5469" y2="678.5469"><stop offset="0.0113" style="stop-color:#DAD4D8"/><stop offset="0.1442" style="stop-color:#DDD7DB"/><stop offset="0.2591" style="stop-color:#E6E2E5"/><stop offset="0.3669" style="stop-color:#F5F4F5"/><stop offset="0.4181" style="stop-color:#FFFFFF"/><stop offset="0.4358" style="stop-color:#FAF9FA"/><stop offset="0.5088" style="stop-color:#EAE8EA"/><stop offset="0.5868" style="stop-color:#E1DDE0"/><stop offset="0.678" style="stop-color:#DEDADD"/><stop offset="0.8644" style="stop-color:#F7F6F8"/><stop offset="1" style="stop-color:#CCD4E1"/></linearGradient><rect fill="url(#SVGID_1_)" height="32.875" width="2.717" x="84.68" y="48.736"/><linearGradient gradientTransform="matrix(0.1785 0 0 0.36 615.6963 -274.1484)" gradientUnits="userSpaceOnUse" id="SVGID_2_" x1="-3110.8018" x2="-3094.3303" y1="860.7852" y2="860.7852"><stop offset="0.0113" style="stop-color:#DAD4D8"/><stop offset="0.1442" style="stop-color:#DDD7DB"/><stop offset="0.2591" style="stop-color:#E6E2E5"/><stop offset="0.3669" style="stop-color:#F5F4F5"/><stop offset="0.4181" style="stop-color:#FFFFFF"/><stop offset="0.4358" style="stop-color:#FAF9FA"/><stop offset="0.5088" style="stop-color:#EAE8EA"/><stop offset="0.5868" style="stop-color:#E1DDE0"/><stop offset="0.678" style="stop-color:#DEDADD"/><stop offset="0.8644" style="stop-color:#F7F6F8"/><stop offset="1" style="stop-color:#CCD4E1"/></linearGradient><rect fill="url(#SVGID_2_)" height="11.125" width="2.715" x="60.85" y="30.172"/><linearGradient gradientTransform="matrix(0.1901 0 0 0.1785 643.108 -155.1255)" gradientUnits="userSpaceOnUse" id="SVGID_3_" x1="-3050.647" x2="-3050.647" y1="1135.8975" y2="1160.3657"><stop offset="0.0113" style="stop-color:#DAD4D8"/><stop offset="0.1442" style="stop-color:#DDD7DB"/><stop offset="0.2591" style="stop-color:#E6E2E5"/><stop offset="0.3669" style="stop-color:#F5F4F5"/><stop offset="0.4181" style="stop-color:#FFFFFF"/><stop offset="0.4358" style="stop-color:#FAF9FA"/><stop offset="0.5088" style="stop-color:#EAE8EA"/><stop offset="0.5868" style="stop-color:#E1DDE0"/><stop offset="0.678" style="stop-color:#DEDADD"/><stop offset="0.8644" style="stop-color:#F7F6F8"/><stop offset="1" style="stop-color:#CCD4E1"/></linearGradient><rect fill="url(#SVGID_3_)" height="3.449" width="48.434" x="38.962" y="48.736"/><linearGradient gradientTransform="matrix(0.1785 0 0 0.8656 594.292 -573.9111)" gradientUnits="userSpaceOnUse" id="SVGID_4_" x1="-3092.2056" x2="-3075.7263" y1="703.875" y2="703.875"><stop offset="0.0113" style="stop-color:#DAD4D8"/><stop offset="0.1442" style="stop-color:#DDD7DB"/><stop offset="0.2591" style="stop-color:#E6E2E5"/><stop offset="0.3669" style="stop-color:#F5F4F5"/><stop offset="0.4181" style="stop-color:#FFFFFF"/><stop offset="0.4358" style="stop-color:#FAF9FA"/><stop offset="0.5088" style="stop-color:#EAE8EA"/><stop offset="0.5868" style="stop-color:#E1DDE0"/><stop offset="0.678" style="stop-color:#DEDADD"/><stop offset="0.8644" style="stop-color:#F7F6F8"/><stop offset="1" style="stop-color:#CCD4E1"/></linearGradient><rect fill="url(#SVGID_4_)" height="26.747" width="2.716" x="42.765" y="21.989"/><linearGradient gradientTransform="matrix(0.2883 0 0 0.1785 843.001 -190.3071)" gradientUnits="userSpaceOnUse" id="SVGID_5_" x1="-2748.23" x2="-2748.23" y1="1163.8379" y2="1188.3025"><stop offset="0.0113" style="stop-color:#DAD4D8"/><stop offset="0.1442" style="stop-color:#DDD7DB"/><stop offset="0.2591" style="stop-color:#E6E2E5"/><stop offset="0.3669" style="stop-color:#F5F4F5"/><stop offset="0.4181" style="stop-color:#FFFFFF"/><stop offset="0.4358" style="stop-color:#FAF9FA"/><stop offset="0.5088" style="stop-color:#EAE8EA"/><stop offset="0.5868" style="stop-color:#E1DDE0"/><stop offset="0.678" style="stop-color:#DEDADD"/><stop offset="0.8644" style="stop-color:#F7F6F8"/><stop offset="1" style="stop-color:#CCD4E1"/></linearGradient><rect fill="url(#SVGID_5_)" height="3.449" width="73.42" x="13.977" y="18.541"/><linearGradient gradientTransform="matrix(0.3038 0 0 0.1785 873.6252 -120.8364)" gradientUnits="userSpaceOnUse" id="SVGID_6_" x1="-2715.3735" x2="-2715.3735" y1="1108.6689" y2="1133.1365"><stop offset="0.0113" style="stop-color:#DAD4D8"/><stop offset="0.1442" style="stop-color:#DDD7DB"/><stop offset="0.2591" style="stop-color:#E6E2E5"/><stop offset="0.3669" style="stop-color:#F5F4F5"/><stop offset="0.4181" style="stop-color:#FFFFFF"/><stop offset="0.4358" style="stop-color:#FAF9FA"/><stop offset="0.5088" style="stop-color:#EAE8EA"/><stop offset="0.5868" style="stop-color:#E1DDE0"/><stop offset="0.678" style="stop-color:#DEDADD"/><stop offset="0.8644" style="stop-color:#F7F6F8"/><stop offset="1" style="stop-color:#CCD4E1"/></linearGradient><rect fill="url(#SVGID_6_)" height="3.448" width="77.404" x="9.993" y="78.163"/><linearGradient gradientTransform="matrix(0.1785 0 0 1.8179 572.4458 -1121.833)" gradientUnits="userSpaceOnUse" id="SVGID_7_" x1="-3073.2124" x2="-3056.7439" y1="644.6494" y2="644.6494"><stop offset="0.0113" style="stop-color:#DAD4D8"/><stop offset="0.1442" style="stop-color:#DDD7DB"/><stop offset="0.2591" style="stop-color:#E6E2E5"/><stop offset="0.3669" style="stop-color:#F5F4F5"/><stop offset="0.4181" style="stop-color:#FFFFFF"/><stop offset="0.4358" style="stop-color:#FAF9FA"/><stop offset="0.5088" style="stop-color:#EAE8EA"/><stop offset="0.5868" style="stop-color:#E1DDE0"/><stop offset="0.678" style="stop-color:#DEDADD"/><stop offset="0.8644" style="stop-color:#F7F6F8"/><stop offset="1" style="stop-color:#CCD4E1"/></linearGradient><rect fill="url(#SVGID_7_)" height="56.174" width="2.716" x="24.308" y="21.989"/><g><radialGradient cx="-1300.0703" cy="540.4395" gradientTransform="matrix(0.1288 0 0 0.1308 212.0055 -18.5)" gradientUnits="userSpaceOnUse" id="SVGID_8_" r="41.2824"><stop offset="0.0056" style="stop-color:#A9D1EF"/><stop offset="0.5393" style="stop-color:#1998D5"/><stop offset="1" style="stop-color:#0073BB"/></radialGradient><ellipse cx="43.922" cy="50.292" fill="url(#SVGID_8_)" rx="2.596" ry="2.639"/><linearGradient gradientTransform="matrix(0.128 0 0 0.128 210.9128 -16.8064)" gradientUnits="userSpaceOnUse" id="SVGID_9_" x1="-1305.2598" x2="-1305.433" y1="515.5176" y2="501.8153"><stop offset="0" style="stop-color:#1998D5"/><stop offset="0.096" style="stop-color:#209BD6"/><stop offset="0.2318" style="stop-color:#32A3DA"/><stop offset="0.3913" style="stop-color:#51B1DF"/><stop offset="0.5689" style="stop-color:#7BC4E7"/><stop offset="0.7614" style="stop-color:#B1DCF1"/><stop offset="0.9635" style="stop-color:#F2F9FD"/><stop offset="1" style="stop-color:#FFFFFF"/></linearGradient><path d="M45.425,48.967c0,0.642-0.867,0.525-1.743,0.525c-0.876,0-1.433,0.117-1.433-0.525     c0-0.639,0.71-1.158,1.587-1.158C44.715,47.809,45.425,48.328,45.425,48.967z" fill="url(#SVGID_9_)"/></g><g><linearGradient gradientTransform="matrix(0.0907 0 0 0.0907 256.4952 -20.5898)" gradientUnits="userSpaceOnUse" id="SVGID_10_" x1="-2150.1597" x2="-2145.0122" y1="649.1895" y2="896.2664"><stop offset="0.0057" style="stop-color:#BBBDC5"/><stop offset="1" style="stop-color:#7E8288"/></linearGradient><path d="M74.176,58.865c0,1.095-0.883,1.987-1.957,1.987H51.252c-1.075,0-1.955-0.893-1.955-1.987V42.758     c0-1.092,0.88-1.988,1.955-1.988h20.967c1.074,0,1.957,0.896,1.957,1.988V58.865z" fill="url(#SVGID_10_)"/><linearGradient gradientTransform="matrix(0.0907 0 0 0.0907 256.4952 -20.5898)" gradientUnits="userSpaceOnUse" id="SVGID_11_" x1="-2147.9526" x2="-2146.6655" y1="891.7686" y2="684.5522"><stop offset="0.0057" style="stop-color:#E2DCD0"/><stop offset="1" style="stop-color:#96969D"/></linearGradient><path d="M51.252,41.215c-0.838,0-1.522,0.693-1.522,1.543v16.107c0,0.852,0.684,1.545,1.522,1.545h20.967     c0.838,0,1.521-0.693,1.521-1.545V42.758c0-0.851-0.684-1.543-1.521-1.543H51.252z" fill="url(#SVGID_11_)"/><linearGradient gradientTransform="matrix(0.0907 0 0 0.0907 222.878 -41.8212)" gradientUnits="userSpaceOnUse" id="SVGID_12_" x1="-1906.8779" x2="-1651.7842" y1="1006.7422" y2="1006.7422"><stop offset="0.0057" style="stop-color:#76746F"/><stop offset="0.4237" style="stop-color:#A6A5A1"/><stop offset="1" style="stop-color:#626366"/></linearGradient><path d="M51.252,41.657c-0.6,0-1.084,0.495-1.084,1.102v13.459c0,0.608,0.485,1.105,1.084,1.105h20.967     c0.596,0,1.086-0.497,1.086-1.105V42.758c0-0.607-0.49-1.102-1.086-1.102H51.252z" fill="url(#SVGID_12_)"/><path d="M51.252,42.097c-0.36,0-0.652,0.296-0.652,0.661v13.459c0,0.365,0.292,0.662,0.652,0.662h20.967     c0.357,0,0.65-0.297,0.65-0.662V42.758c0-0.365-0.293-0.661-0.65-0.661H51.252z" fill="#3F3D3A"/><radialGradient cx="35.104" cy="1267.8096" fx="34.0558" fy="1285.2289" gradientTransform="matrix(0.3485 0 0 0.354 53.7341 -395.1787)" gradientUnits="userSpaceOnUse" id="SVGID_13_" r="54.0942"><stop offset="0.0056" style="stop-color:#A9D1EF"/><stop offset="0.5393" style="stop-color:#1998D5"/><stop offset="1" style="stop-color:#0073BB"/></radialGradient><path d="M51.688,43.203c0,0.797,0,11.776,0,12.574c0.815,0,19.281,0,20.096,0c0-0.798,0-11.776,0-12.574     C70.969,43.203,52.503,43.203,51.688,43.203z" fill="url(#SVGID_13_)"/><linearGradient gradientTransform="matrix(0.3464 0 0 0.2001 66.3967 -117.736)" gradientUnits="userSpaceOnUse" id="SVGID_14_" x1="-13.4482" x2="-13.4803" y1="806.5791" y2="804.0424"><stop offset="0" style="stop-color:#1998D5"/><stop offset="0.096" style="stop-color:#209BD6"/><stop offset="0.2318" style="stop-color:#32A3DA"/><stop offset="0.3913" style="stop-color:#51B1DF"/><stop offset="0.5689" style="stop-color:#7BC4E7"/><stop offset="0.7614" style="stop-color:#B1DCF1"/><stop offset="0.9635" style="stop-color:#F2F9FD"/><stop offset="1" style="stop-color:#FFFFFF"/></linearGradient><path d="M52.02,43.354c0,0.042,0,0.164,0,0.343c0.631,0,18.801,0,19.432,0c0-0.18,0-0.301,0-0.343     C70.82,43.354,52.65,43.354,52.02,43.354z" fill="url(#SVGID_14_)"/><linearGradient gradientTransform="matrix(0.3533 0 0 0.3533 50.0601 -392.7017)" gradientUnits="userSpaceOnUse" id="SVGID_15_" x1="33.0464" x2="33.0464" y1="1282.3564" y2="1274.8458"><stop offset="0.4237" style="stop-color:#ABB8C0"/><stop offset="1" style="stop-color:#777B80"/></linearGradient><path d="M50.807,60.912h21.857c1.32,0,2.387-1.087,2.387-2.422H48.42     C48.42,59.825,49.49,60.912,50.807,60.912z" fill="url(#SVGID_15_)"/><rect fill="#B1B8C0" height="1.16" width="3.676" x="59.898" y="59.12"/></g><g><linearGradient gradientTransform="matrix(0.0907 0 0 0.0907 243.9952 13.3423)" gradientUnits="userSpaceOnUse" id="SVGID_16_" x1="-2128.8066" x2="-2123.6587" y1="596.1543" y2="843.2509"><stop offset="0.0057" style="stop-color:#BBBDC5"/><stop offset="1" style="stop-color:#7E8288"/></linearGradient><path d="M63.611,87.987c0,1.094-0.879,1.985-1.953,1.985H40.689c-1.074,0-1.954-0.892-1.954-1.985V71.881     c0-1.094,0.88-1.987,1.954-1.987h20.969c1.074,0,1.953,0.894,1.953,1.987V87.987z" fill="url(#SVGID_16_)"/><linearGradient gradientTransform="matrix(0.0907 0 0 0.0907 243.9952 13.3423)" gradientUnits="userSpaceOnUse" id="SVGID_17_" x1="-2126.5723" x2="-2125.2849" y1="838.7402" y2="631.4869"><stop offset="0.0057" style="stop-color:#E2DCD0"/><stop offset="1" style="stop-color:#96969D"/></linearGradient><path d="M40.689,70.334c-0.839,0-1.521,0.694-1.521,1.547v16.106c0,0.851,0.682,1.544,1.521,1.544h20.969     c0.838,0,1.52-0.693,1.52-1.544V71.881c0-0.853-0.682-1.547-1.52-1.547H40.689z" fill="url(#SVGID_17_)"/><linearGradient gradientTransform="matrix(0.0907 0 0 0.0907 210.3765 -7.8906)" gradientUnits="userSpaceOnUse" id="SVGID_18_" x1="-1885.4941" x2="-1630.3848" y1="953.7148" y2="953.7148"><stop offset="0.0057" style="stop-color:#76746F"/><stop offset="0.4237" style="stop-color:#A6A5A1"/><stop offset="1" style="stop-color:#626366"/></linearGradient><path d="M40.689,70.778c-0.597,0-1.083,0.495-1.083,1.103v13.458c0,0.608,0.486,1.105,1.083,1.105h20.969     c0.598,0,1.086-0.497,1.086-1.105V71.881c0-0.607-0.488-1.103-1.086-1.103H40.689z" fill="url(#SVGID_18_)"/><path d="M40.689,71.219c-0.359,0-0.652,0.295-0.652,0.662v13.458c0,0.365,0.292,0.662,0.652,0.662h20.965     c0.361,0,0.654-0.297,0.654-0.662V71.881c0-0.367-0.293-0.662-0.654-0.662H40.689z" fill="#3F3D3A"/><linearGradient gradientUnits="userSpaceOnUse" id="SVGID_19_" x1="40.2363" x2="58.4917" y1="85.7334" y2="73.8497"><stop offset="0" style="stop-color:#BED630"/><stop offset="0.1491" style="stop-color:#9BCD36"/><stop offset="0.4482" style="stop-color:#59BC42"/><stop offset="0.7" style="stop-color:#29AF4A"/><stop offset="0.8914" style="stop-color:#0BA84F"/><stop offset="1" style="stop-color:#00A551"/></linearGradient><path d="M41.125,72.324c0,0.798,0,11.776,0,12.575c0.816,0,19.281,0,20.098,0c0-0.799,0-11.777,0-12.575     C60.406,72.324,41.941,72.324,41.125,72.324z" fill="url(#SVGID_19_)"/><radialGradient cx="-7.0469" cy="781.748" gradientTransform="matrix(0.3485 0 0 0.2045 53.6292 -86.9131)" gradientUnits="userSpaceOnUse" id="SVGID_20_" r="23.8876"><stop offset="0.0057" style="stop-color:#FFFFFF"/><stop offset="1" style="stop-color:#9CD092"/></radialGradient><path d="M41.458,72.477c0,0.041,0,0.164,0,0.341c0.631,0,18.802,0,19.431,0c0-0.177,0-0.3,0-0.341     C60.26,72.477,42.089,72.477,41.458,72.477z" fill="url(#SVGID_20_)"/><linearGradient gradientTransform="matrix(0.3533 0 0 0.3533 37.5601 -358.771)" gradientUnits="userSpaceOnUse" id="SVGID_21_" x1="38.5278" x2="38.5278" y1="1268.7412" y2="1261.2231"><stop offset="0.4237" style="stop-color:#ABB8C0"/><stop offset="1" style="stop-color:#777B80"/></linearGradient><path d="M40.244,90.033h21.859c1.318,0,2.383-1.082,2.383-2.422H37.858     C37.858,88.951,38.928,90.033,40.244,90.033z" fill="url(#SVGID_21_)"/><rect fill="#B1B8C0" height="1.162" width="3.677" x="49.336" y="88.241"/></g><g><linearGradient gradientTransform="matrix(0.0907 0 0 0.0907 212.9327 -20.5971)" gradientUnits="userSpaceOnUse" id="SVGID_22_" x1="-2075.6704" x2="-2070.5229" y1="649.209" y2="896.2847"><stop offset="0.0057" style="stop-color:#BBBDC5"/><stop offset="1" style="stop-color:#7E8288"/></linearGradient><path d="M37.368,58.855c0,1.097-0.877,1.99-1.954,1.99H14.446c-1.075,0-1.955-0.894-1.955-1.99V42.751     c0-1.093,0.88-1.986,1.955-1.986h20.967c1.077,0,1.954,0.893,1.954,1.986V58.855z" fill="url(#SVGID_22_)"/><linearGradient gradientTransform="matrix(0.0907 0 0 0.0907 212.9327 -20.5971)" gradientUnits="userSpaceOnUse" id="SVGID_23_" x1="-2073.4438" x2="-2072.1565" y1="891.7959" y2="684.5536"><stop offset="0.0057" style="stop-color:#E2DCD0"/><stop offset="1" style="stop-color:#96969D"/></linearGradient><path d="M14.446,41.208c-0.839,0-1.521,0.693-1.521,1.544v16.104c0,0.852,0.683,1.547,1.521,1.547h20.967     c0.84,0,1.521-0.695,1.521-1.547V42.751c0-0.851-0.682-1.544-1.521-1.544H14.446z" fill="url(#SVGID_23_)"/><linearGradient gradientTransform="matrix(0.0907 0 0 0.0907 179.316 -41.8315)" gradientUnits="userSpaceOnUse" id="SVGID_24_" x1="-1832.3857" x2="-1577.2842" y1="1006.7461" y2="1006.7461"><stop offset="0.0057" style="stop-color:#76746F"/><stop offset="0.4237" style="stop-color:#A6A5A1"/><stop offset="1" style="stop-color:#626366"/></linearGradient><path d="M14.446,41.647c-0.598,0-1.085,0.495-1.085,1.104v13.458c0,0.608,0.487,1.104,1.085,1.104h20.967     c0.599,0,1.086-0.496,1.086-1.104V42.751c0-0.609-0.487-1.104-1.086-1.104H14.446z" fill="url(#SVGID_24_)"/><path d="M14.445,42.09c-0.358,0-0.652,0.297-0.652,0.662v13.458c0,0.367,0.293,0.663,0.652,0.663h20.969     c0.359,0,0.652-0.296,0.652-0.663V42.751c0-0.365-0.292-0.662-0.652-0.662H14.445z" fill="#3F3D3A"/><linearGradient gradientTransform="matrix(0.3464 0 0 0.3464 10.4387 -385.1741)" gradientUnits="userSpaceOnUse" id="SVGID_25_" x1="77.9619" x2="25.5031" y1="1280.0684" y2="1243.3473"><stop offset="0" style="stop-color:#E0ADCF"/><stop offset="0.1858" style="stop-color:#D890C2"/><stop offset="0.7447" style="stop-color:#C23D9C"/><stop offset="1" style="stop-color:#B91C8D"/></linearGradient><path d="M14.882,43.194c0,0.798,0,11.775,0,12.575c0.814,0,19.279,0,20.097,0c0-0.8,0-11.777,0-12.575     C34.161,43.194,15.696,43.194,14.882,43.194z" fill="url(#SVGID_25_)"/><linearGradient gradientTransform="matrix(0.3464 0 0 0.2001 22.8337 -117.7438)" gradientUnits="userSpaceOnUse" id="SVGID_26_" x1="33.5898" x2="-29.8276" y1="804.2881" y2="808.0184"><stop offset="0" style="stop-color:#F6F5F7"/><stop offset="0.495" style="stop-color:#75A6D0"/><stop offset="0.8427" style="stop-color:#2173B6"/><stop offset="1" style="stop-color:#005FAC"/></linearGradient><path d="M15.213,43.347c0,0.041,0,0.164,0,0.343c0.631,0,18.8,0,19.433,0c0-0.179,0-0.302,0-0.343     C34.014,43.347,15.845,43.347,15.213,43.347z" fill="url(#SVGID_26_)"/><linearGradient gradientTransform="matrix(0.3533 0 0 0.3533 6.4985 -392.7104)" gradientUnits="userSpaceOnUse" id="SVGID_27_" x1="52.166" x2="52.166" y1="1282.3574" y2="1274.8501"><stop offset="0.4237" style="stop-color:#ABB8C0"/><stop offset="1" style="stop-color:#777B80"/></linearGradient><path d="M14.001,60.902h21.858c1.317,0,2.384-1.081,2.384-2.419H11.616     C11.616,59.821,12.683,60.902,14.001,60.902z" fill="url(#SVGID_27_)"/><rect fill="#B1B8C0" height="1.163" width="3.678" x="23.091" y="59.11"/></g><g><linearGradient gradientTransform="matrix(0.0907 0 0 0.0907 256.8892 -56.4081)" gradientUnits="userSpaceOnUse" id="SVGID_28_" x1="-2150.8491" x2="-2145.7014" y1="705.1738" y2="952.2563"><stop offset="0.0057" style="stop-color:#BBBDC5"/><stop offset="1" style="stop-color:#7E8288"/></linearGradient><path d="M74.508,28.125c0,1.093-0.883,1.988-1.957,1.988H51.586c-1.075,0-1.957-0.895-1.957-1.988V12.019     c0-1.093,0.882-1.986,1.957-1.986h20.965c1.074,0,1.957,0.893,1.957,1.986V28.125z" fill="url(#SVGID_28_)"/><linearGradient gradientTransform="matrix(0.0907 0 0 0.0907 256.8892 -56.4081)" gradientUnits="userSpaceOnUse" id="SVGID_29_" x1="-2148.6133" x2="-2147.3259" y1="947.7773" y2="740.5186"><stop offset="0.0057" style="stop-color:#E2DCD0"/><stop offset="1" style="stop-color:#96969D"/></linearGradient><path d="M51.586,10.473c-0.841,0-1.523,0.695-1.523,1.546v16.106c0,0.851,0.682,1.544,1.523,1.544h20.965     c0.84,0,1.523-0.693,1.523-1.544V12.019c0-0.851-0.684-1.546-1.523-1.546H51.586z" fill="url(#SVGID_29_)"/><linearGradient gradientTransform="matrix(0.0907 0 0 0.0907 223.2725 -77.6376)" gradientUnits="userSpaceOnUse" id="SVGID_30_" x1="-1907.5674" x2="-1652.4424" y1="1062.6992" y2="1062.6992"><stop offset="0.0057" style="stop-color:#76746F"/><stop offset="0.4237" style="stop-color:#A6A5A1"/><stop offset="1" style="stop-color:#626366"/></linearGradient><path d="M51.586,10.917c-0.601,0-1.087,0.494-1.087,1.102v13.457c0,0.611,0.486,1.106,1.087,1.106h20.965     c0.598,0,1.088-0.495,1.088-1.106V12.019c0-0.608-0.49-1.102-1.088-1.102H51.586z" fill="url(#SVGID_30_)"/><path d="M51.586,11.357c-0.361,0-0.653,0.296-0.653,0.662v13.457c0,0.368,0.292,0.664,0.653,0.664h20.965     c0.359,0,0.65-0.296,0.65-0.664V12.019c0-0.366-0.291-0.662-0.65-0.662H51.586z" fill="#3F3D3A"/><radialGradient cx="24.1611" cy="1294.4414" fx="32.9144" fy="1298.6191" gradientTransform="matrix(0.3485 0 0 0.354 54.1321 -431.7871)" gradientUnits="userSpaceOnUse" id="SVGID_31_" r="47.2208"><stop offset="0" style="stop-color:#FFF9C1"/><stop offset="0.1819" style="stop-color:#FBDF9D"/><stop offset="0.4447" style="stop-color:#F7BD6E"/><stop offset="0.6782" style="stop-color:#F4A54D"/><stop offset="0.8713" style="stop-color:#F29638"/><stop offset="1" style="stop-color:#F19131"/></radialGradient><path d="M52.02,12.461c0,0.799,0,11.777,0,12.576c0.817,0,19.281,0,20.098,0c0-0.798,0-11.777,0-12.576     C71.301,12.461,52.837,12.461,52.02,12.461z" fill="url(#SVGID_31_)"/><radialGradient cx="-13.0664" cy="837.6299" gradientTransform="matrix(0.3485 0 0 0.2045 66.6033 -158.2017)" gradientUnits="userSpaceOnUse" id="SVGID_32_" r="23.933"><stop offset="0" style="stop-color:#F1F4FA"/><stop offset="0.1031" style="stop-color:#F1EFEF"/><stop offset="0.2822" style="stop-color:#F1E1D3"/><stop offset="0.5161" style="stop-color:#F1CAA5"/><stop offset="0.7924" style="stop-color:#F1AB65"/><stop offset="1" style="stop-color:#F19131"/></radialGradient><path d="M52.354,12.614c0,0.042,0,0.164,0,0.344c0.63,0,18.801,0,19.432,0c0-0.18,0-0.302,0-0.344     C71.154,12.614,52.983,12.614,52.354,12.614z" fill="url(#SVGID_32_)"/><linearGradient gradientTransform="matrix(0.3533 0 0 0.3533 50.4546 -428.52)" gradientUnits="userSpaceOnUse" id="SVGID_33_" x1="32.8696" x2="32.8696" y1="1296.7256" y2="1289.2131"><stop offset="0.4237" style="stop-color:#ABB8C0"/><stop offset="1" style="stop-color:#777B80"/></linearGradient><path d="M51.138,30.172H73c1.314,0,2.383-1.085,2.383-2.422H48.753     C48.753,29.087,49.82,30.172,51.138,30.172z" fill="url(#SVGID_33_)"/><rect fill="#B1B8C0" height="1.163" width="3.676" x="60.23" y="28.378"/></g><g><radialGradient cx="-1272.876" cy="497.168" gradientTransform="matrix(0.1288 0 0 0.1308 190.1471 16.8032)" gradientUnits="userSpaceOnUse" id="SVGID_34_" r="41.2814"><stop offset="0.0056" style="stop-color:#A9D1EF"/><stop offset="0.5393" style="stop-color:#1998D5"/><stop offset="1" style="stop-color:#0073BB"/></radialGradient><ellipse cx="25.567" cy="79.939" fill="url(#SVGID_34_)" rx="2.597" ry="2.636"/><linearGradient gradientTransform="matrix(0.128 0 0 0.128 189.1887 17.7346)" gradientUnits="userSpaceOnUse" id="SVGID_35_" x1="-1278.9292" x2="-1279.1025" y1="477.2568" y2="463.5521"><stop offset="0" style="stop-color:#1998D5"/><stop offset="0.096" style="stop-color:#209BD6"/><stop offset="0.2318" style="stop-color:#32A3DA"/><stop offset="0.3913" style="stop-color:#51B1DF"/><stop offset="0.5689" style="stop-color:#7BC4E7"/><stop offset="0.7614" style="stop-color:#B1DCF1"/><stop offset="0.9635" style="stop-color:#F2F9FD"/><stop offset="1" style="stop-color:#FFFFFF"/></linearGradient><path d="M27.071,78.613c0,0.639-0.866,0.521-1.741,0.521c-0.88,0-1.435,0.117-1.435-0.521     c0-0.644,0.709-1.159,1.585-1.159C26.358,77.454,27.071,77.97,27.071,78.613z" fill="url(#SVGID_35_)"/></g><g><radialGradient cx="-1362.4995" cy="540.667" gradientTransform="matrix(0.1288 0 0 0.1308 262.17 -18.6978)" gradientUnits="userSpaceOnUse" id="SVGID_36_" r="41.28"><stop offset="0.0056" style="stop-color:#A9D1EF"/><stop offset="0.5393" style="stop-color:#1998D5"/><stop offset="1" style="stop-color:#0073BB"/></radialGradient><path d="M88.645,50.126c0,1.455-1.164,2.636-2.596,2.636c-1.436,0-2.6-1.182-2.6-2.636     c0-1.458,1.164-2.639,2.6-2.639C87.48,47.488,88.645,48.668,88.645,50.126z" fill="url(#SVGID_36_)"/><linearGradient gradientTransform="matrix(0.128 0 0 0.128 260.7703 -17.0007)" gradientUnits="userSpaceOnUse" id="SVGID_37_" x1="-1365.6646" x2="-1365.8379" y1="515.7324" y2="502.0209"><stop offset="0" style="stop-color:#1998D5"/><stop offset="0.096" style="stop-color:#209BD6"/><stop offset="0.2318" style="stop-color:#32A3DA"/><stop offset="0.3913" style="stop-color:#51B1DF"/><stop offset="0.5689" style="stop-color:#7BC4E7"/><stop offset="0.7614" style="stop-color:#B1DCF1"/><stop offset="0.9635" style="stop-color:#F2F9FD"/><stop offset="1" style="stop-color:#FFFFFF"/></linearGradient><path d="M87.549,48.8c0,0.643-0.863,0.525-1.74,0.525c-0.879,0-1.434,0.118-1.434-0.525     c0-0.64,0.711-1.16,1.586-1.16C86.838,47.64,87.549,48.16,87.549,48.8z" fill="url(#SVGID_37_)"/></g><g><radialGradient cx="-1362.5103" cy="497.1621" gradientTransform="matrix(0.1288 0 0 0.1308 262.1715 16.8057)" gradientUnits="userSpaceOnUse" id="SVGID_38_" r="41.2943"><stop offset="0.0056" style="stop-color:#A9D1EF"/><stop offset="0.5393" style="stop-color:#1998D5"/><stop offset="1" style="stop-color:#0073BB"/></radialGradient><ellipse cx="86.047" cy="79.939" fill="url(#SVGID_38_)" rx="2.598" ry="2.636"/><linearGradient gradientTransform="matrix(0.128 0 0 0.128 260.7712 17.7351)" gradientUnits="userSpaceOnUse" id="SVGID_39_" x1="-1365.6704" x2="-1365.8438" y1="477.2627" y2="463.5544"><stop offset="0" style="stop-color:#1998D5"/><stop offset="0.096" style="stop-color:#209BD6"/><stop offset="0.2318" style="stop-color:#32A3DA"/><stop offset="0.3913" style="stop-color:#51B1DF"/><stop offset="0.5689" style="stop-color:#7BC4E7"/><stop offset="0.7614" style="stop-color:#B1DCF1"/><stop offset="0.9635" style="stop-color:#F2F9FD"/><stop offset="1" style="stop-color:#FFFFFF"/></linearGradient><path d="M87.549,78.613c0,0.643-0.863,0.523-1.74,0.523c-0.879,0-1.434,0.119-1.434-0.523     c0-0.644,0.711-1.159,1.586-1.159C86.838,77.454,87.549,77.97,87.549,78.613z" fill="url(#SVGID_39_)"/></g><g><radialGradient cx="-1300.0742" cy="583.6172" gradientTransform="matrix(0.1288 0 0 0.1308 212.0055 -53.7344)" gradientUnits="userSpaceOnUse" id="SVGID_40_" r="41.2756"><stop offset="0.0056" style="stop-color:#A9D1EF"/><stop offset="0.5393" style="stop-color:#1998D5"/><stop offset="1" style="stop-color:#0073BB"/></radialGradient><ellipse cx="43.922" cy="20.705" fill="url(#SVGID_40_)" rx="2.596" ry="2.637"/><linearGradient gradientTransform="matrix(0.128 0 0 0.128 210.9128 -51.28)" gradientUnits="userSpaceOnUse" id="SVGID_41_" x1="-1305.2637" x2="-1305.437" y1="553.6943" y2="539.9889"><stop offset="0" style="stop-color:#1998D5"/><stop offset="0.096" style="stop-color:#209BD6"/><stop offset="0.2318" style="stop-color:#32A3DA"/><stop offset="0.3913" style="stop-color:#51B1DF"/><stop offset="0.5689" style="stop-color:#7BC4E7"/><stop offset="0.7614" style="stop-color:#B1DCF1"/><stop offset="0.9635" style="stop-color:#F2F9FD"/><stop offset="1" style="stop-color:#FFFFFF"/></linearGradient><path d="M45.425,19.379c0,0.644-0.867,0.527-1.743,0.527c-0.876,0-1.435,0.117-1.435-0.527     c0-0.639,0.712-1.158,1.589-1.158C44.712,18.221,45.425,18.741,45.425,19.379z" fill="url(#SVGID_41_)"/></g><g><radialGradient cx="-1364.5044" cy="583.6172" gradientTransform="matrix(0.1288 0 0 0.1308 263.7765 -53.7344)" gradientUnits="userSpaceOnUse" id="SVGID_42_" r="41.2735"><stop offset="0.0056" style="stop-color:#A9D1EF"/><stop offset="0.5393" style="stop-color:#1998D5"/><stop offset="1" style="stop-color:#0073BB"/></radialGradient><ellipse cx="87.396" cy="20.705" fill="url(#SVGID_42_)" rx="2.597" ry="2.637"/><linearGradient gradientTransform="matrix(0.128 0 0 0.128 262.3665 -51.28)" gradientUnits="userSpaceOnUse" id="SVGID_43_" x1="-1367.626" x2="-1367.7993" y1="553.6943" y2="539.9838"><stop offset="0" style="stop-color:#1998D5"/><stop offset="0.096" style="stop-color:#209BD6"/><stop offset="0.2318" style="stop-color:#32A3DA"/><stop offset="0.3913" style="stop-color:#51B1DF"/><stop offset="0.5689" style="stop-color:#7BC4E7"/><stop offset="0.7614" style="stop-color:#B1DCF1"/><stop offset="0.9635" style="stop-color:#F2F9FD"/><stop offset="1" style="stop-color:#FFFFFF"/></linearGradient><path d="M88.895,19.379c0,0.644-0.861,0.527-1.738,0.527s-1.436,0.117-1.436-0.527     c0-0.639,0.711-1.158,1.588-1.158C88.188,18.221,88.895,18.741,88.895,19.379z" fill="url(#SVGID_43_)"/></g><g><radialGradient cx="-1254.3018" cy="583.6172" gradientTransform="matrix(0.1288 0 0 0.1308 175.2252 -53.7344)" gradientUnits="userSpaceOnUse" id="SVGID_44_" r="41.2794"><stop offset="0.0056" style="stop-color:#A9D1EF"/><stop offset="0.5393" style="stop-color:#1998D5"/><stop offset="1" style="stop-color:#0073BB"/></radialGradient><ellipse cx="13.037" cy="20.705" fill="url(#SVGID_44_)" rx="2.596" ry="2.637"/><linearGradient gradientTransform="matrix(0.128 0 0 0.128 174.3582 -51.28)" gradientUnits="userSpaceOnUse" id="SVGID_45_" x1="-1260.9746" x2="-1261.1479" y1="553.6943" y2="539.9866"><stop offset="0" style="stop-color:#1998D5"/><stop offset="0.096" style="stop-color:#209BD6"/><stop offset="0.2318" style="stop-color:#32A3DA"/><stop offset="0.3913" style="stop-color:#51B1DF"/><stop offset="0.5689" style="stop-color:#7BC4E7"/><stop offset="0.7614" style="stop-color:#B1DCF1"/><stop offset="0.9635" style="stop-color:#F2F9FD"/><stop offset="1" style="stop-color:#FFFFFF"/></linearGradient><path d="M14.538,19.379c0,0.644-0.863,0.527-1.741,0.527c-0.875,0-1.435,0.117-1.435-0.527     c0-0.639,0.712-1.158,1.588-1.158C13.829,18.221,14.538,18.741,14.538,19.379z" fill="url(#SVGID_45_)"/></g><g><radialGradient cx="-1254.3101" cy="497.168" gradientTransform="matrix(0.1288 0 0 0.1308 175.2272 16.8032)" gradientUnits="userSpaceOnUse" id="SVGID_46_" r="41.2858"><stop offset="0.0056" style="stop-color:#A9D1EF"/><stop offset="0.5393" style="stop-color:#1998D5"/><stop offset="1" style="stop-color:#0073BB"/></radialGradient><path d="M15.634,79.939c0,1.454-1.162,2.636-2.595,2.636c-1.432,0-2.598-1.182-2.598-2.636     c0-1.458,1.166-2.642,2.598-2.642C14.472,77.298,15.634,78.481,15.634,79.939z" fill="url(#SVGID_46_)"/><linearGradient gradientTransform="matrix(0.128 0 0 0.128 174.3591 17.7346)" gradientUnits="userSpaceOnUse" id="SVGID_47_" x1="-1260.9609" x2="-1261.1343" y1="477.2568" y2="463.5521"><stop offset="0" style="stop-color:#1998D5"/><stop offset="0.096" style="stop-color:#209BD6"/><stop offset="0.2318" style="stop-color:#32A3DA"/><stop offset="0.3913" style="stop-color:#51B1DF"/><stop offset="0.5689" style="stop-color:#7BC4E7"/><stop offset="0.7614" style="stop-color:#B1DCF1"/><stop offset="0.9635" style="stop-color:#F2F9FD"/><stop offset="1" style="stop-color:#FFFFFF"/></linearGradient><path d="M14.541,78.613c0,0.639-0.866,0.521-1.741,0.521c-0.877,0-1.434,0.117-1.434-0.521     c0-0.644,0.71-1.159,1.587-1.159C13.829,77.454,14.541,77.97,14.541,78.613z" fill="url(#SVGID_47_)"/></g></g></g></svg>